<svg xmlns="http://www.w3.org/2000/svg" viewBox="0 0 400 400">
<rect width="400" height="400" fill="#1a1e2e" rx="20"/>
<g transform="translate(50,120)">
<path d="M40,160 C40,160 30,140 50,120 L80,100 C80,100 120,80 160,80 L260,85 C260,85 300,90 310,110 C320,130 300,160 300,160 Z" fill="#8B6914" stroke="#5c4a1e" stroke-width="3"/>
<path d="M30,160 L310,160 C310,160 320,160 320,170 L320,185 C320,195 310,195 310,195 L30,195 C20,195 20,185 20,185 L20,170 C20,160 30,160 30,160 Z" fill="#e8d5b0"/>
<path d="M80,100 C80,100 100,95 120,100 L130,120 L90,125 Z" fill="#5c4a1e" opacity="0.7"/>
<circle cx="270" cy="120" r="15" fill="#5c4a1e" opacity="0.5"/>
<path d="M160,85 L165,130 M200,83 L203,128 M240,84 L242,126" stroke="#5c4a1e" stroke-width="2" opacity="0.3"/>
</g></svg>